<svg id="logo" xmlns="http://www.w3.org/2000/svg" viewBox="0 0 390.5 172.56">
  <defs>
    <style>
      .gold {
        fill:#edb80f;
      }

      @media (prefers-color-scheme: dark) {
        .line {
          fill: white;
        }
      }
    </style>
  </defs>
  <path class="line" d="M136.27,53.07c-9.54,7.64-18.63,16-29.21,22.21-3.9,2.29-18.6,10-20.8,1.8-1.58-6,2.28-13.49,4.71-18.69,2.62-5.61,3.73-8.41,7.22-13.52,2.79-4.1,9.21-12.48,12.74-15.93,4.92-4.8,8.35-7.81,14.46-11,5.53-2.92,10-.33,10.27,5.79C136.25,35.56,125.79,47,116.73,53c-1.06.71-1.25,1.45-.11,1.06,10.09-3.43,18.7-12.6,22.73-22.38,2-4.89,4-15-2-18.32-4.75-2.58-10.88.79-14.92,3.27-6.38,3.91-12,9-17.37,14.2A96.22,96.22,0,0,0,83.89,61.47c-2.4,5.32-5.59,12.83-3.56,18.75C82.66,87,91.2,85.71,96.64,84.49,111,81.28,123,71.13,134.35,61.81c-.19,13.07.34,26.53-1.59,39.33a78.25,78.25,0,0,1-13.57,33c-13.44,19.27-36.8,32.33-60.52,28.75-21.67-3.27-40.17-21-45.49-42C7.77,99.45,15.64,74.58,33.59,61.39c7.83-5.74,19.82-11.63,29.29-10.82,2.79.23,7.39-1,2.61-2.26-22.3-6-43.41,8.23-55.14,26.39C-1.7,93.36-3.44,118,6.24,138c9.49,19.57,29.9,32.16,51.2,34.27,23.94,2.38,47.48-10.31,63.45-27.35a86.09,86.09,0,0,0,20.56-38.15c4.23-17.22.78-35.7,1.09-53.2C142.59,50.43,137.49,52.1,136.27,53.07Z"/>
  <path class="gold" d="M332.1,15.35c3-1.35,4.45-4.78,4.75-7.88.13-1.43-1-1.93-2.22-1.52a7.94,7.94,0,0,0-3.33,2.2,6.1,6.1,0,0,0-1.18,1.92,2.75,2.75,0,0,1-.14-.3,8.28,8.28,0,0,1,.08-4.55c.4-1.65,1.07-2,2.78-2.12.84,0,2.12-1.9,1.17-2.5-2.88-1.83-5.39.89-6.7,3.3a12.45,12.45,0,0,0-.9,9.17A4,4,0,0,0,332.1,15.35Z"/>
  <path class="line" d="M386.6,44.37c-13,2.8-21.38-5-33.86-8.19s-24.38-3.92-36.75.55c-6.15,2.22-11.91,5.65-17.63,8.79-2.72,1.5-3.69,3-3.29-.55.3-2.6.91-5.12,1-7.74.48-11.17-11.69-8.06-18.14-4.47a59.87,59.87,0,0,0-9.78,6.9,17.94,17.94,0,0,0,.29-3.78c-.06-1.53-1.51-1.91-2.68-1.2-6,3.68-12.19,8.53-17.12,12.29a14.93,14.93,0,0,0-1.16-2,4.17,4.17,0,0,1-.62-4.16,4.16,4.16,0,0,1,1.43-2.25c-.32-1.48-1.21-1.69-2.13-1.31-4.63,1.92-7.69,6.36-10.77,11.09-1.12,1.72-8,12.77-9.75,12.29-2.76-.75,5.91-16.35,6.52-18.4.9-3-3.29-.95-4,.34-3.4,6.06-8,11.4-11.74,16.7-1.58,2.25-5.35,7.94-6.11,5.61-.41-1.64.88-5.34,3.57-9.34,2.09-3.07,7-9.36,11.51-11.32.33-.15.73-.9.78-.91a18.3,18.3,0,0,0-5.69,2.27c-3.39,2.25-7.22,6.38-10.21,10.74-7.15,7.81-15.43,15.5-24.93,19-6.3,2.31-12.09-.19-14.71-6.32-2.95-6.87.29-15.74,3-22.14a84,84,0,0,1,15-23.17c4.74-5.31,11.15-10.72,18.83-9.52,12,1.88-3,26.89-7.82,30.17-1.33.9-1.85,2.38.12,1.1,5.21-3.39,8.92-8.64,11.95-14,2.84-5,6.26-12.11,4.39-18s-11.26-3.06-15.13-1.31c-7.27,3.28-13.32,9.12-18.49,15.06a90.83,90.83,0,0,0-15,24.21c-2.85,6.75-5.28,15.26-2.28,22.37,6.73,16,28.08,0,35.8-6.25q2.94-2.4,5.76-5c-2.22,4.94-2.44,9.1,1.46,9.76,5,.85,7.41-5.64,9.78-9.53,1-1.65,1.72-3.57,2.85-5.11-1.05,3.17-1.14,6,1,7.4,3.93,2.6,9-4.49,10.68-6.9,1.77-2.6,8.23-14.74,14.16-19.37-.44-.07-1.18-1-2.42,2.07-1.15,2.81.3,4.27,1.15,5.92.42.81.8,1.52.31,2.19-4.54,2.7-9.2,5.89-9.95,8.69-.55,2,.06,5.06,3.19,4.54,3-.5,8.24-5.44,10.25-12.38a96.27,96.27,0,0,1,13.53-10,51.5,51.5,0,0,1-2.26,7c-2.45,2.48-4.85,5-7.26,7.49a195,195,0,0,0-26.17,34,181.08,181.08,0,0,0-15.06,31.39c-2.4,6.4-7.29,18.15-1.72,24.15.85.92,2.18.55,3.19.2,7.2-2.53,11.27-10.39,14.87-16.56,5.44-9.32,10.59-18.77,15.37-28.45,5.1-10.32,10.24-20.71,14.58-31.37,2.37-5.81,4.59-11.7,6.51-17.67.19-.57.38-1.14.59-1.7,5.91-6.24,12.9-12.63,21-13s-2.63,16.5,3,18.27c3.59,1.12,7.3-1.6,10.29-3.26,6.37-3.55,12.63-7.18,19.72-9.13,12.43-3.41,24.66.74,36.58,4.1,11.27,3.17,22.32,4.29,33.59.53C391.51,45.26,390.47,43.53,386.6,44.37ZM252.74,65.74C248.91,75,244.4,84,240.09,93s-9.13,18.18-14.13,27c-1.77,3.12-3.65,6.18-5.45,9.28-1.13,1.93-2.54,5.08-4.43,7-2.89-5.69,2.12-15.88,4-20.86a173,173,0,0,1,15.78-31.2,186.6,186.6,0,0,1,19.31-25C254.4,61.48,253.61,63.64,252.74,65.74Z"/>
</svg>